<svg version="1.1" xmlns="http://www.w3.org/2000/svg" viewBox="0 0 869.9230181872557 226.98342595508325" width="869.9230181872557" height="226.98342595508325">
  <!-- svg-source:excalidraw -->

  <defs>
    <style class="style-fonts">
      @font-face {
        font-family: "Virgil";
        src: url("https://excalidraw.com/Virgil.woff2");
      }
      @font-face {
        font-family: "Cascadia";
        src: url("https://excalidraw.com/Cascadia.woff2");
      }
    </style>

  </defs>
  <rect x="0" y="0" width="869.9230181872557" height="226.98342595508325" fill="#ffffff"></rect><g mask="url(#mask-RxmaaIw9KJLhU4a-44GJS)" stroke-linecap="round"><g transform="translate(137.90728295707163 131.39255553451812) rotate(0 304.51419556710925 -26.115098510384996)"><path d="M-0.14 -0.56 C51.72 -10.23, 210.18 -58.04, 311.59 -57.29 C412.99 -56.55, 558.73 -6.15, 608.3 3.91 M-1.67 1.76 C50.06 -7.81, 209 -56.57, 311.07 -56.02 C413.13 -55.47, 561.02 -4.86, 610.7 5.07" stroke="#1971c2" stroke-width="1" fill="none"></path></g><g transform="translate(137.90728295707163 131.39255553451812) rotate(0 304.51419556710925 -26.115098510384996)"><path d="M579.91 9.28 C589.99 5.44, 600.35 5.65, 608.8 5.38 M581.52 8.74 C590.72 7.53, 601.62 6.07, 611.43 4.45" stroke="#1971c2" stroke-width="1" fill="none"></path></g><g transform="translate(137.90728295707163 131.39255553451812) rotate(0 304.51419556710925 -26.115098510384996)"><path d="M585.06 -10.58 C593.54 -7.77, 602.17 -0.89, 608.8 5.38 M586.68 -11.12 C594.12 -5.62, 603.28 -0.35, 611.43 4.45" stroke="#1971c2" stroke-width="1" fill="none"></path></g></g><mask id="mask-RxmaaIw9KJLhU4a-44GJS"><rect x="0" y="0" fill="#fff" width="847.1421586462218" height="292.3925555345181"></rect><rect x="352.7779477000025" y="62.10531280954967" fill="#000" width="191.7998504638672" height="25" opacity="1"></rect></mask><g transform="translate(352.77794770000264 62.10531280954967) rotate(0 89.64353082417836 43.172144214583454)"><text x="95.8999252319336" y="0" font-family="Virgil, Segoe UI Emoji" font-size="20px" fill="#1971c2" text-anchor="middle" style="white-space: pre;" direction="ltr" dominant-baseline="text-before-edge">Advance(3 seconds)</text></g><g stroke-linecap="round"><g transform="translate(136.7304187850741 173.48342595508325) rotate(0 361.3456581259518 -0.3935567119409029)"><path d="M0.63 -0.09 C121.21 -0.3, 602.9 -0.6, 723.19 -0.75 M-0.5 -1.18 C120.03 -1.29, 602.34 0.23, 722.7 0.4" stroke="#1e1e1e" stroke-width="1" fill="none"></path></g><g transform="translate(136.7304187850741 173.48342595508325) rotate(0 361.3456581259518 -0.3935567119409029)"><path d="M694.34 12.05 C700.96 7.78, 708.31 6.48, 724.62 -0.73 M693.92 11.18 C702.66 7.67, 709.51 4.85, 723.38 0.51" stroke="#1e1e1e" stroke-width="1" fill="none"></path></g><g transform="translate(136.7304187850741 173.48342595508325) rotate(0 361.3456581259518 -0.3935567119409029)"><path d="M694.39 -8.47 C701.08 -7.1, 708.41 -2.75, 724.62 -0.73 M693.97 -9.34 C702.51 -7.64, 709.35 -5.23, 723.38 0.51" stroke="#1e1e1e" stroke-width="1" fill="none"></path></g></g><mask></mask><g stroke-linecap="round"><g transform="translate(136.7304187850741 161.48342595508325) rotate(0 0.014836996616338638 12.13623668881138)"><path d="M0.87 -0.75 C0.78 3.27, 0.06 19.52, 0.08 24 M-0.13 1.47 C-0.42 5.62, -0.97 21.2, -0.82 25.02" stroke="#1e1e1e" stroke-width="1" fill="none"></path></g></g><mask></mask><g stroke-linecap="round"><g transform="translate(340.46960161245227 160.3136145948804) rotate(0 -0.1701174392262601 12.576123437657998)"><path d="M0.08 -1 C0.1 3.49, 1.11 21.91, 0.99 26.15 M-1.33 1.1 C-1.46 5.34, 0.63 20.56, 0.56 24.63" stroke="#1e1e1e" stroke-width="1" fill="none"></path></g></g><mask></mask><g stroke-linecap="round"><g transform="translate(548.4696016124523 161.3136145948804) rotate(0 0.500085683148427 13.202520730160188)"><path d="M0.99 1.15 C0.86 5.39, -0.34 20.52, -0.68 24.45 M0.05 0.7 C0.3 5.19, 1.47 21.49, 1.68 25.7" stroke="#1e1e1e" stroke-width="1" fill="none"></path></g></g><mask></mask><g stroke-linecap="round"><g transform="translate(753.4696016124527 161.3136145948804) rotate(0 0.12973570450594707 12.815121694672882)"><path d="M-0.68 -0.55 C-1.02 3.39, -1.06 20.39, -1.06 24.76 M1.17 1.78 C1.1 6.41, 1.59 22.52, 1.1 26.18" stroke="#1e1e1e" stroke-width="1" fill="none"></path></g></g><mask></mask><g transform="translate(105.73041878507411 191.48342595508325) rotate(0 29.939987182617188 12.5)"><text x="0" y="0" font-family="Virgil, Segoe UI Emoji" font-size="20px" fill="#1e1e1e" text-anchor="start" style="white-space: pre;" direction="ltr" dominant-baseline="text-before-edge">00:00</text></g><g transform="translate(308.7904316024566 190.98342595508325) rotate(0 25.769989013671875 12.5)"><text x="0" y="0" font-family="Virgil, Segoe UI Emoji" font-size="20px" fill="#1e1e1e" text-anchor="start" style="white-space: pre;" direction="ltr" dominant-baseline="text-before-edge">00:01</text></g><g transform="translate(518.7904316024566 191.98342595508325) rotate(0 30.17998504638672 12.5)"><text x="0" y="0" font-family="Virgil, Segoe UI Emoji" font-size="20px" fill="#1e1e1e" text-anchor="start" style="white-space: pre;" direction="ltr" dominant-baseline="text-before-edge">00:02</text></g><g transform="translate(723.5504337386875 189.98342595508325) rotate(0 29.86998748779297 12.5)"><text x="0" y="0" font-family="Virgil, Segoe UI Emoji" font-size="20px" fill="#1e1e1e" text-anchor="start" style="white-space: pre;" direction="ltr" dominant-baseline="text-before-edge">00:03</text></g><g transform="translate(10 160.00904616173284) rotate(0 36.989959716796875 12.5)"><text x="0" y="0" font-family="Virgil, Segoe UI Emoji" font-size="20px" fill="#1e1e1e" text-anchor="start" style="white-space: pre;" direction="ltr" dominant-baseline="text-before-edge">Timeline</text></g><g stroke-linecap="round" transform="translate(746.085794191593 165.3115123840514) rotate(0 7.5 7)"><path d="M15 7 C15 7.41, 14.96 7.82, 14.89 8.22 C14.81 8.61, 14.7 9.01, 14.55 9.39 C14.4 9.77, 14.21 10.15, 14 10.5 C13.78 10.85, 13.52 11.19, 13.25 11.5 C12.97 11.81, 12.65 12.1, 12.32 12.36 C11.99 12.62, 11.63 12.86, 11.25 13.06 C10.87 13.26, 10.47 13.44, 10.07 13.58 C9.66 13.72, 9.23 13.82, 8.8 13.89 C8.37 13.96, 7.93 14, 7.5 14 C7.07 14, 6.63 13.96, 6.2 13.89 C5.77 13.82, 5.34 13.72, 4.93 13.58 C4.53 13.44, 4.13 13.26, 3.75 13.06 C3.37 12.86, 3.01 12.62, 2.68 12.36 C2.35 12.1, 2.03 11.81, 1.75 11.5 C1.48 11.19, 1.22 10.85, 1 10.5 C0.79 10.15, 0.6 9.77, 0.45 9.39 C0.3 9.01, 0.19 8.61, 0.11 8.22 C0.04 7.82, 0 7.41, 0 7 C0 6.59, 0.04 6.18, 0.11 5.78 C0.19 5.39, 0.3 4.99, 0.45 4.61 C0.6 4.23, 0.79 3.85, 1 3.5 C1.22 3.15, 1.48 2.81, 1.75 2.5 C2.03 2.19, 2.35 1.9, 2.68 1.64 C3.01 1.38, 3.37 1.14, 3.75 0.94 C4.13 0.74, 4.53 0.56, 4.93 0.42 C5.34 0.28, 5.77 0.18, 6.2 0.11 C6.63 0.04, 7.07 0, 7.5 0 C7.93 0, 8.37 0.04, 8.8 0.11 C9.23 0.18, 9.66 0.28, 10.07 0.42 C10.47 0.56, 10.87 0.74, 11.25 0.94 C11.63 1.14, 11.99 1.38, 12.32 1.64 C12.65 1.9, 12.97 2.19, 13.25 2.5 C13.52 2.81, 13.78 3.15, 14 3.5 C14.21 3.85, 14.4 4.23, 14.55 4.61 C14.7 4.99, 14.81 5.39, 14.89 5.78 C14.96 6.18, 14.98 6.8, 15 7 C15.02 7.2, 15.02 6.8, 15 7" stroke="#6741d9" stroke-width="4" fill="none"></path></g><g transform="translate(761.1258226780275 146.86275279735048) rotate(0 12.42999267578125 12.5)"><text x="0" y="0" font-family="Virgil, Segoe UI Emoji" font-size="20px" fill="#6741d9" text-anchor="start" style="white-space: pre;" direction="ltr" dominant-baseline="text-before-edge">3x</text></g><g transform="translate(335.45076465956834 10) rotate(0 117.75394439697266 17.5)"><text x="0" y="0" font-family="Virgil, Segoe UI Emoji" font-size="28px" fill="#1e1e1e" text-anchor="start" style="white-space: pre;" direction="ltr" dominant-baseline="text-before-edge">FakeTimeProvider</text></g></svg>