<svg version="1.1" xmlns="http://www.w3.org/2000/svg" viewBox="0 0 869.9887025154841 174.87811314553392" width="869.9887025154841" height="174.87811314553392">
  <!-- svg-source:excalidraw -->

  <defs>
    <style class="style-fonts">
      @font-face {
        font-family: "Virgil";
        src: url("https://excalidraw.com/Virgil.woff2");
      }
      @font-face {
        font-family: "Cascadia";
        src: url("https://excalidraw.com/Cascadia.woff2");
      }
    </style>

  </defs>
  <rect x="0" y="0" width="869.9887025154841" height="174.87811314553392" fill="#ffffff"></rect><g mask="url(#mask-Ec05oKOZAfRUGbogXm8Kx)" stroke-linecap="round"><g transform="translate(137.90728295707163 79.28724272496856) rotate(0 304.8118152195966 -26.129956355705303)"><path d="M-0.59 0.36 C51.36 -8.97, 209.44 -57.78, 311.24 -57.2 C413.05 -56.63, 560.39 -6.32, 610.22 3.83 M1.3 -0.49 C53.17 -9.56, 209.1 -56.79, 310.54 -55.89 C411.99 -54.98, 559.9 -5.12, 609.96 4.95" stroke="#1971c2" stroke-width="1" fill="none"></path></g><g transform="translate(137.90728295707163 79.28724272496856) rotate(0 304.8118152195966 -26.129956355705303)"><path d="M580.71 8.64 C587.27 8.87, 595.16 8.04, 609.13 5.83 M579.12 8.52 C592.75 7.36, 604.12 6.27, 609.29 4.12" stroke="#1971c2" stroke-width="1" fill="none"></path></g><g transform="translate(137.90728295707163 79.28724272496856) rotate(0 304.8118152195966 -26.129956355705303)"><path d="M585.83 -11.23 C590.85 -5.81, 597.4 -1.43, 609.13 5.83 M584.24 -11.35 C595.78 -4.61, 605.13 2.17, 609.29 4.12" stroke="#1971c2" stroke-width="1" fill="none"></path></g></g><mask id="mask-Ec05oKOZAfRUGbogXm8Kx"><rect x="0" y="0" fill="#fff" width="847.1421586462218" height="240.28724272496856"></rect><rect x="368.8079464792994" y="10" fill="#000" width="159.73985290527344" height="25" opacity="1"></rect></mask><g transform="translate(368.8079464792995 10) rotate(0 73.91115169736884 43.15728636926326)"><text x="79.86992645263672" y="0" font-family="Virgil, Segoe UI Emoji" font-size="20px" fill="#1971c2" text-anchor="middle" style="white-space: pre;" direction="ltr" dominant-baseline="text-before-edge">Jump(3 seconds)</text></g><g stroke-linecap="round"><g transform="translate(136.7304187850741 121.37811314553392) rotate(0 361.64739810296334 -0.42490062346689683)"><path d="M0.98 -0.38 C121.44 -0.39, 602.95 -0.75, 723.26 -0.5 M0.04 -1.63 C120.38 -1.44, 602.42 0.6, 722.8 0.78" stroke="#1e1e1e" stroke-width="1" fill="none"></path></g><g transform="translate(136.7304187850741 121.37811314553392) rotate(0 361.64739810296334 -0.42490062346689683)"><path d="M693.95 12.52 C703.37 8.15, 715.7 3.25, 724.14 -1.2 M694.94 11.87 C704.17 6.15, 715.65 3.65, 722.01 1.49" stroke="#1e1e1e" stroke-width="1" fill="none"></path></g><g transform="translate(136.7304187850741 121.37811314553392) rotate(0 361.64739810296334 -0.42490062346689683)"><path d="M694.01 -8 C703.34 -5.41, 715.65 -3.33, 724.14 -1.2 M695 -8.65 C704.38 -6.85, 715.83 -1.82, 722.01 1.49" stroke="#1e1e1e" stroke-width="1" fill="none"></path></g></g><mask></mask><g stroke-linecap="round"><g transform="translate(136.7304187850741 109.37811314553392) rotate(0 0.3979908823873757 12.1729005040321)"><path d="M0.94 -0.5 C0.86 3.92, 0.74 21.77, 0.53 26.15 M-0.02 -1.81 C-0.3 2.34, 0.06 20.35, -0.14 24.63" stroke="#1e1e1e" stroke-width="1" fill="none"></path></g></g><mask></mask><g stroke-linecap="round"><g transform="translate(340.46960161245215 108.2083017853306) rotate(0 -0.5037222409887363 13.257375833699484)"><path d="M0.53 1.15 C0.31 5.54, -0.05 21.69, -0.34 25.8 M-0.66 0.71 C-1.14 4.8, -1.75 20.24, -1.46 24.1" stroke="#1e1e1e" stroke-width="1" fill="none"></path></g></g><mask></mask><g stroke-linecap="round"><g transform="translate(548.4696016124523 109.2083017853306) rotate(0 0.23459952520488514 12.990215015867761)"><path d="M-0.34 0.8 C-0.62 4.91, -1.4 21.6, -1.18 25.8 M1.69 0.18 C1.71 4.46, 1.07 20.09, 0.91 24.1" stroke="#1e1e1e" stroke-width="1" fill="none"></path></g></g><mask></mask><g stroke-linecap="round"><g transform="translate(753.4696016124525 109.2083017853306) rotate(0 -0.10635549388825893 13.101518911132644)"><path d="M-1.18 0.8 C-0.97 5.01, 0.7 21.81, 0.97 26.03 M0.4 0.18 C0.57 3.99, 0.62 20.42, 0.53 24.44" stroke="#1e1e1e" stroke-width="1" fill="none"></path></g></g><mask></mask><g transform="translate(105.73041878507411 139.37811314553392) rotate(0 29.939987182617188 12.5)"><text x="0" y="0" font-family="Virgil, Segoe UI Emoji" font-size="20px" fill="#1e1e1e" text-anchor="start" style="white-space: pre;" direction="ltr" dominant-baseline="text-before-edge">00:00</text></g><g transform="translate(308.79043160245647 138.87811314553392) rotate(0 25.769989013671875 12.5)"><text x="0" y="0" font-family="Virgil, Segoe UI Emoji" font-size="20px" fill="#1e1e1e" text-anchor="start" style="white-space: pre;" direction="ltr" dominant-baseline="text-before-edge">00:01</text></g><g transform="translate(518.7904316024566 139.87811314553392) rotate(0 30.17998504638672 12.5)"><text x="0" y="0" font-family="Virgil, Segoe UI Emoji" font-size="20px" fill="#1e1e1e" text-anchor="start" style="white-space: pre;" direction="ltr" dominant-baseline="text-before-edge">00:02</text></g><g transform="translate(723.5504337386873 137.87811314553392) rotate(0 29.86998748779297 12.5)"><text x="0" y="0" font-family="Virgil, Segoe UI Emoji" font-size="20px" fill="#1e1e1e" text-anchor="start" style="white-space: pre;" direction="ltr" dominant-baseline="text-before-edge">00:03</text></g><g transform="translate(10 107.90373335218328) rotate(0 36.989959716796875 12.5)"><text x="0" y="0" font-family="Virgil, Segoe UI Emoji" font-size="20px" fill="#1e1e1e" text-anchor="start" style="white-space: pre;" direction="ltr" dominant-baseline="text-before-edge">Timeline</text></g><g stroke-linecap="round" transform="translate(746.0857941915928 113.20619957450208) rotate(0 7.5 7)"><path d="M15 7 C15 7.41, 14.96 7.82, 14.89 8.22 C14.81 8.61, 14.7 9.01, 14.55 9.39 C14.4 9.77, 14.21 10.15, 14 10.5 C13.78 10.85, 13.52 11.19, 13.25 11.5 C12.97 11.81, 12.65 12.1, 12.32 12.36 C11.99 12.62, 11.63 12.86, 11.25 13.06 C10.87 13.26, 10.47 13.44, 10.07 13.58 C9.66 13.72, 9.23 13.82, 8.8 13.89 C8.37 13.96, 7.93 14, 7.5 14 C7.07 14, 6.63 13.96, 6.2 13.89 C5.77 13.82, 5.34 13.72, 4.93 13.58 C4.53 13.44, 4.13 13.26, 3.75 13.06 C3.37 12.86, 3.01 12.62, 2.68 12.36 C2.35 12.1, 2.03 11.81, 1.75 11.5 C1.48 11.19, 1.22 10.85, 1 10.5 C0.79 10.15, 0.6 9.77, 0.45 9.39 C0.3 9.01, 0.19 8.61, 0.11 8.22 C0.04 7.82, 0 7.41, 0 7 C0 6.59, 0.04 6.18, 0.11 5.78 C0.19 5.39, 0.3 4.99, 0.45 4.61 C0.6 4.23, 0.79 3.85, 1 3.5 C1.22 3.15, 1.48 2.81, 1.75 2.5 C2.03 2.19, 2.35 1.9, 2.68 1.64 C3.01 1.38, 3.37 1.14, 3.75 0.94 C4.13 0.74, 4.53 0.56, 4.93 0.42 C5.34 0.28, 5.77 0.18, 6.2 0.11 C6.63 0.04, 7.07 0, 7.5 0 C7.93 0, 8.37 0.04, 8.8 0.11 C9.23 0.18, 9.66 0.28, 10.07 0.42 C10.47 0.56, 10.87 0.74, 11.25 0.94 C11.63 1.14, 11.99 1.38, 12.32 1.64 C12.65 1.9, 12.97 2.19, 13.25 2.5 C13.52 2.81, 13.78 3.15, 14 3.5 C14.21 3.85, 14.4 4.23, 14.55 4.61 C14.7 4.99, 14.81 5.39, 14.89 5.78 C14.96 6.18, 14.98 6.8, 15 7 C15.02 7.2, 15.02 6.8, 15 7" stroke="#6741d9" stroke-width="4" fill="none"></path></g><g transform="translate(761.1258226780272 94.75743998780081) rotate(0 12.42999267578125 12.5)"><text x="0" y="0" font-family="Virgil, Segoe UI Emoji" font-size="20px" fill="#6741d9" text-anchor="start" style="white-space: pre;" direction="ltr" dominant-baseline="text-before-edge">3x</text></g></svg>