<svg version="1.1" xmlns="http://www.w3.org/2000/svg" viewBox="0 0 866.9204204060961 153.79666222814012" width="866.9204204060961" height="153.79666222814012">
  <!-- svg-source:excalidraw -->

  <defs>
    <style class="style-fonts">
      @font-face {
        font-family: "Virgil";
        src: url("https://excalidraw.com/Virgil.woff2");
      }
      @font-face {
        font-family: "Cascadia";
        src: url("https://excalidraw.com/Cascadia.woff2");
      }
    </style>

  </defs>
  <rect x="0" y="0" width="866.9204204060961" height="153.79666222814012" fill="#ffffff"></rect><g mask="url(#mask-kaSroHJpckyga9IViHSkF)" stroke-linecap="round"><g transform="translate(131.67957209860106 67.5) rotate(0 102.02685507063222 -18.81940831196951)"><path d="M0.85 -1.02 C17.82 -8.76, 68.58 -47.1, 102.47 -45.7 C136.37 -44.31, 187.41 -1.52, 204.22 7.37 M-0.17 1.06 C16.63 -6.6, 67.77 -45.71, 101.77 -44.53 C135.77 -43.36, 186.89 -0.69, 203.84 8.1" stroke="#1971c2" stroke-width="1" fill="none"></path></g><g transform="translate(131.67957209860106 67.5) rotate(0 102.02685507063222 -18.81940831196951)"><path d="M172.91 2.12 C183.81 4.74, 193.47 5.6, 202.36 10.02 M175.23 1.76 C184.65 3.34, 192.37 5.47, 203.46 8.84" stroke="#1971c2" stroke-width="1" fill="none"></path></g><g transform="translate(131.67957209860106 67.5) rotate(0 102.02685507063222 -18.81940831196951)"><path d="M184.11 -15.08 C191.15 -6.3, 196.85 0.64, 202.36 10.02 M186.42 -15.44 C192.17 -8.51, 196.39 -0.99, 203.46 8.84" stroke="#1971c2" stroke-width="1" fill="none"></path></g></g><mask id="mask-kaSroHJpckyga9IViHSkF"><rect x="0" y="0" fill="#fff" width="435.1641999746113" height="220.97437979335052"></rect><rect x="147.3096380165698" y="10" fill="#000" width="172.7398681640625" height="25" opacity="1"></rect></mask><g transform="translate(147.3096380165698 10) rotate(0 86.39678915266347 38.68059168803049)"><text x="86.36993408203125" y="0" font-family="Virgil, Segoe UI Emoji" font-size="20px" fill="#1971c2" text-anchor="middle" style="white-space: pre;" direction="ltr" dominant-baseline="text-before-edge">Advance(1 second)</text></g><g mask="url(#mask-1LXbDrqxClh_vGpP0l_dZ)" stroke-linecap="round"><g transform="translate(343.9700577104529 75.56244907435905) rotate(0 100.55482351588284 -21.419988835049452)"><path d="M1.05 -0.23 C17.17 -8.22, 63.64 -49.12, 96.96 -48.19 C130.28 -47.26, 183.59 -3.37, 200.97 5.37 M0.14 -1.39 C16.63 -9.25, 65.89 -47.99, 99.27 -47.21 C132.64 -46.44, 183.27 -5.42, 200.36 3.29" stroke="#1971c2" stroke-width="1" fill="none"></path></g><g transform="translate(343.9700577104529 75.56244907435905) rotate(0 100.55482351588284 -21.419988835049452)"><path d="M170.68 -4.42 C178.54 -0.85, 190.43 1.7, 199.3 3.22 M171.84 -2.94 C179.39 -1.91, 189.15 1.68, 200.55 2.54" stroke="#1971c2" stroke-width="1" fill="none"></path></g><g transform="translate(343.9700577104529 75.56244907435905) rotate(0 100.55482351588284 -21.419988835049452)"><path d="M181.65 -21.76 C186.01 -12.6, 194.42 -4.56, 199.3 3.22 M182.82 -20.28 C187.28 -14.18, 193.78 -5.45, 200.55 2.54" stroke="#1971c2" stroke-width="1" fill="none"></path></g></g><mask id="mask-1LXbDrqxClh_vGpP0l_dZ"><rect x="0" y="0" fill="#fff" width="644.6439995334777" height="227.5602930011538"></rect><rect x="355.34295052116886" y="15.936560206851027" fill="#000" width="172.7398681640625" height="25" opacity="1"></rect></mask><g transform="translate(355.34295052116886 15.936560206851027) rotate(0 89.1819307051669 38.20590003245857)"><text x="86.36993408203125" y="0" font-family="Virgil, Segoe UI Emoji" font-size="20px" fill="#1971c2" text-anchor="middle" style="white-space: pre;" direction="ltr" dominant-baseline="text-before-edge">Advance(1 second)</text></g><g mask="url(#mask-skohqpmh6L2oIga7cDGfU)" stroke-linecap="round"><g transform="translate(552.8530479376957 77.36085257877892) rotate(0 99.00443106702255 -20.14829234453225)"><path d="M-0.64 -0.04 C15.82 -7.61, 66.06 -45.8, 99.28 -44.79 C132.49 -43.77, 181.94 -2.19, 198.65 6.04 M1.22 -1.1 C17.48 -9.03, 65.59 -47.21, 98.31 -46.32 C131.02 -45.44, 180.6 -4.44, 197.53 4.19" stroke="#1971c2" stroke-width="1" fill="none"></path></g><g transform="translate(552.8530479376957 77.36085257877892) rotate(0 99.00443106702255 -20.14829234453225)"><path d="M168.19 -2.45 C180.14 -1.1, 189.85 2.63, 196.72 2.48 M167.51 -2.59 C179.81 0.09, 189.78 1.88, 198.31 3.64" stroke="#1971c2" stroke-width="1" fill="none"></path></g><g transform="translate(552.8530479376957 77.36085257877892) rotate(0 99.00443106702255 -20.14829234453225)"><path d="M179.26 -19.73 C187.52 -12.54, 193.45 -2.91, 196.72 2.48 M178.58 -19.87 C186.96 -10.83, 192.87 -2.7, 198.31 3.64" stroke="#1971c2" stroke-width="1" fill="none"></path></g></g><mask id="mask-skohqpmh6L2oIga7cDGfU"><rect x="0" y="0" fill="#fff" width="852.1770163138908" height="228.36085257877892"></rect><rect x="565.8070822318596" y="18.957056372170655" fill="#000" width="172.7398681640625" height="25" opacity="1"></rect></mask><g transform="translate(565.8070822318596 18.957056372170655) rotate(0 86.05039677285868 38.25550386207601)"><text x="86.36993408203125" y="0" font-family="Virgil, Segoe UI Emoji" font-size="20px" fill="#1971c2" text-anchor="middle" style="white-space: pre;" direction="ltr" dominant-baseline="text-before-edge">Advance(1 second)</text></g><g transform="translate(10 90.09118190815263) rotate(0 36.989959716796875 12.5)"><text x="0" y="0" font-family="Virgil, Segoe UI Emoji" font-size="20px" fill="#1e1e1e" text-anchor="start" style="white-space: pre;" direction="ltr" dominant-baseline="text-before-edge">Timeline</text></g><g stroke-linecap="round"><g transform="translate(133.90760418129003 100.91584825072721) rotate(0 361.04643171476204 -0.1371070590575414)"><path d="M-0.92 0.16 C119.52 0.02, 602.6 -0.52, 723.01 -0.66 M0.8 -0.8 C121.1 -0.81, 601.89 0.35, 722.43 0.53" stroke="#1e1e1e" stroke-width="1" fill="none"></path></g><g transform="translate(133.90760418129003 100.91584825072721) rotate(0 361.04643171476204 -0.1371070590575414)"><path d="M694.48 11.89 C702.48 6.24, 711.78 4.45, 723.53 2.19 M694.21 9.9 C704.83 6.72, 713.83 3.17, 722.82 0.41" stroke="#1e1e1e" stroke-width="1" fill="none"></path></g><g transform="translate(133.90760418129003 100.91584825072721) rotate(0 361.04643171476204 -0.1371070590575414)"><path d="M694.52 -8.63 C702.53 -7.46, 711.82 -2.43, 723.53 2.19 M694.25 -10.62 C704.66 -6.64, 713.65 -3.04, 722.82 0.41" stroke="#1e1e1e" stroke-width="1" fill="none"></path></g></g><mask></mask><g stroke-linecap="round"><g transform="translate(133.90760418129003 88.91584825072721) rotate(0 0.3591811326060679 12.401997306365502)"><path d="M0.69 -0.66 C0.72 3.36, -0.7 19.91, -0.79 24.3 M-0.4 1.61 C0.09 5.76, 1.53 21.79, 1.51 25.46" stroke="#1e1e1e" stroke-width="1" fill="none"></path></g></g><mask></mask><g stroke-linecap="round"><g transform="translate(337.6467870086683 87.74603689052435) rotate(0 0.10002503226667159 12.479925474897016)"><path d="M-0.79 -0.7 C-0.88 3.68, -0.13 21.28, 0.17 25.66 M1 1.54 C0.71 5.64, -0.65 20.22, -0.69 23.89" stroke="#1e1e1e" stroke-width="1" fill="none"></path></g></g><mask></mask><g stroke-linecap="round"><g transform="translate(545.6467870086681 88.74603689052435) rotate(0 -0.08352133045752907 12.775742031652499)"><path d="M0.17 0.66 C0.47 5.04, 1.21 21.36, 1 25.59 M-1.2 -0.03 C-0.9 4.05, 0.17 19.73, 0.57 23.77" stroke="#1e1e1e" stroke-width="1" fill="none"></path></g></g><mask></mask><g stroke-linecap="round"><g transform="translate(750.6467870086681 88.74603689052435) rotate(0 -0.02904862554976262 12.931817678976813)"><path d="M1 0.59 C0.78 4.81, -0.94 22.11, -1.1 26.02 M0.06 -0.15 C0.19 3.7, 1.17 20.27, 1.03 24.43" stroke="#1e1e1e" stroke-width="1" fill="none"></path></g></g><mask></mask><g stroke-linecap="round" transform="translate(330.2681036291385 92.74393467969537) rotate(0 7.5 7)"><path d="M15 7 C15 7.41, 14.96 7.82, 14.89 8.22 C14.81 8.61, 14.7 9.01, 14.55 9.39 C14.4 9.77, 14.21 10.15, 14 10.5 C13.78 10.85, 13.52 11.19, 13.25 11.5 C12.97 11.81, 12.65 12.1, 12.32 12.36 C11.99 12.62, 11.63 12.86, 11.25 13.06 C10.87 13.26, 10.47 13.44, 10.07 13.58 C9.66 13.72, 9.23 13.82, 8.8 13.89 C8.37 13.96, 7.93 14, 7.5 14 C7.07 14, 6.63 13.96, 6.2 13.89 C5.77 13.82, 5.34 13.72, 4.93 13.58 C4.53 13.44, 4.13 13.26, 3.75 13.06 C3.37 12.86, 3.01 12.62, 2.68 12.36 C2.35 12.1, 2.03 11.81, 1.75 11.5 C1.48 11.19, 1.22 10.85, 1 10.5 C0.79 10.15, 0.6 9.77, 0.45 9.39 C0.3 9.01, 0.19 8.61, 0.11 8.22 C0.04 7.82, 0 7.41, 0 7 C0 6.59, 0.04 6.18, 0.11 5.78 C0.19 5.39, 0.3 4.99, 0.45 4.61 C0.6 4.23, 0.79 3.85, 1 3.5 C1.22 3.15, 1.48 2.81, 1.75 2.5 C2.03 2.19, 2.35 1.9, 2.68 1.64 C3.01 1.38, 3.37 1.14, 3.75 0.94 C4.13 0.74, 4.53 0.56, 4.93 0.42 C5.34 0.28, 5.77 0.18, 6.2 0.11 C6.63 0.04, 7.07 0, 7.5 0 C7.93 0, 8.37 0.04, 8.8 0.11 C9.23 0.18, 9.66 0.28, 10.07 0.42 C10.47 0.56, 10.87 0.74, 11.25 0.94 C11.63 1.14, 11.99 1.38, 12.32 1.64 C12.65 1.9, 12.97 2.19, 13.25 2.5 C13.52 2.81, 13.78 3.15, 14 3.5 C14.21 3.85, 14.4 4.23, 14.55 4.61 C14.7 4.99, 14.81 5.39, 14.89 5.78 C14.96 6.18, 14.98 6.8, 15 7 C15.02 7.2, 15.02 6.8, 15 7" stroke="#6741d9" stroke-width="4" fill="none"></path></g><g stroke-linecap="round" transform="translate(537.2527315051484 93.73368659703544) rotate(0 7.5 7)"><path d="M15 7 C15 7.41, 14.96 7.82, 14.89 8.22 C14.81 8.61, 14.7 9.01, 14.55 9.39 C14.4 9.77, 14.21 10.15, 14 10.5 C13.78 10.85, 13.52 11.19, 13.25 11.5 C12.97 11.81, 12.65 12.1, 12.32 12.36 C11.99 12.62, 11.63 12.86, 11.25 13.06 C10.87 13.26, 10.47 13.44, 10.07 13.58 C9.66 13.72, 9.23 13.82, 8.8 13.89 C8.37 13.96, 7.93 14, 7.5 14 C7.07 14, 6.63 13.96, 6.2 13.89 C5.77 13.82, 5.34 13.72, 4.93 13.58 C4.53 13.44, 4.13 13.26, 3.75 13.06 C3.37 12.86, 3.01 12.62, 2.68 12.36 C2.35 12.1, 2.03 11.81, 1.75 11.5 C1.48 11.19, 1.22 10.85, 1 10.5 C0.79 10.15, 0.6 9.77, 0.45 9.39 C0.3 9.01, 0.19 8.61, 0.11 8.22 C0.04 7.82, 0 7.41, 0 7 C0 6.59, 0.04 6.18, 0.11 5.78 C0.19 5.39, 0.3 4.99, 0.45 4.61 C0.6 4.23, 0.79 3.85, 1 3.5 C1.22 3.15, 1.48 2.81, 1.75 2.5 C2.03 2.19, 2.35 1.9, 2.68 1.64 C3.01 1.38, 3.37 1.14, 3.75 0.94 C4.13 0.74, 4.53 0.56, 4.93 0.42 C5.34 0.28, 5.77 0.18, 6.2 0.11 C6.63 0.04, 7.07 0, 7.5 0 C7.93 0, 8.37 0.04, 8.8 0.11 C9.23 0.18, 9.66 0.28, 10.07 0.42 C10.47 0.56, 10.87 0.74, 11.25 0.94 C11.63 1.14, 11.99 1.38, 12.32 1.64 C12.65 1.9, 12.97 2.19, 13.25 2.5 C13.52 2.81, 13.78 3.15, 14 3.5 C14.21 3.85, 14.4 4.23, 14.55 4.61 C14.7 4.99, 14.81 5.39, 14.89 5.78 C14.96 6.18, 14.98 6.8, 15 7 C15.02 7.2, 15.02 6.8, 15 7" stroke="#6741d9" stroke-width="4" fill="none"></path></g><g stroke-linecap="round" transform="translate(743.2629795878083 92.74393467969537) rotate(0 7.5 7)"><path d="M15 7 C15 7.41, 14.96 7.82, 14.89 8.22 C14.81 8.61, 14.7 9.01, 14.55 9.39 C14.4 9.77, 14.21 10.15, 14 10.5 C13.78 10.85, 13.52 11.19, 13.25 11.5 C12.97 11.81, 12.65 12.1, 12.32 12.36 C11.99 12.62, 11.63 12.86, 11.25 13.06 C10.87 13.26, 10.47 13.44, 10.07 13.58 C9.66 13.72, 9.23 13.82, 8.8 13.89 C8.37 13.96, 7.93 14, 7.5 14 C7.07 14, 6.63 13.96, 6.2 13.89 C5.77 13.82, 5.34 13.72, 4.93 13.58 C4.53 13.44, 4.13 13.26, 3.75 13.06 C3.37 12.86, 3.01 12.62, 2.68 12.36 C2.35 12.1, 2.03 11.81, 1.75 11.5 C1.48 11.19, 1.22 10.85, 1 10.5 C0.79 10.15, 0.6 9.77, 0.45 9.39 C0.3 9.01, 0.19 8.61, 0.11 8.22 C0.04 7.82, 0 7.41, 0 7 C0 6.59, 0.04 6.18, 0.11 5.78 C0.19 5.39, 0.3 4.99, 0.45 4.61 C0.6 4.23, 0.79 3.85, 1 3.5 C1.22 3.15, 1.48 2.81, 1.75 2.5 C2.03 2.19, 2.35 1.9, 2.68 1.64 C3.01 1.38, 3.37 1.14, 3.75 0.94 C4.13 0.74, 4.53 0.56, 4.93 0.42 C5.34 0.28, 5.77 0.18, 6.2 0.11 C6.63 0.04, 7.07 0, 7.5 0 C7.93 0, 8.37 0.04, 8.8 0.11 C9.23 0.18, 9.66 0.28, 10.07 0.42 C10.47 0.56, 10.87 0.74, 11.25 0.94 C11.63 1.14, 11.99 1.38, 12.32 1.64 C12.65 1.9, 12.97 2.19, 13.25 2.5 C13.52 2.81, 13.78 3.15, 14 3.5 C14.21 3.85, 14.4 4.23, 14.55 4.61 C14.7 4.99, 14.81 5.39, 14.89 5.78 C14.96 6.18, 14.98 6.8, 15 7 C15.02 7.2, 15.02 6.8, 15 7" stroke="#6741d9" stroke-width="4" fill="none"></path></g><g transform="translate(345.3295921250972 73.34129146496355) rotate(0 8.329994201660156 12.5)"><text x="0" y="0" font-family="Virgil, Segoe UI Emoji" font-size="20px" fill="#6741d9" text-anchor="start" style="white-space: pre;" direction="ltr" dominant-baseline="text-before-edge">1x</text></g><g transform="translate(550.455105432804 74.79005105166436) rotate(0 8.329994201660156 12.5)"><text x="0" y="0" font-family="Virgil, Segoe UI Emoji" font-size="20px" fill="#6741d9" text-anchor="start" style="white-space: pre;" direction="ltr" dominant-baseline="text-before-edge">1x</text></g><g transform="translate(758.3030080742433 74.29517509299433) rotate(0 8.329994201660156 12.5)"><text x="0" y="0" font-family="Virgil, Segoe UI Emoji" font-size="20px" fill="#6741d9" text-anchor="start" style="white-space: pre;" direction="ltr" dominant-baseline="text-before-edge">1x</text></g><g transform="translate(105.9334524477515 118.29666222814012) rotate(0 29.939987182617188 12.5)"><text x="0" y="0" font-family="Virgil, Segoe UI Emoji" font-size="20px" fill="#1e1e1e" text-anchor="start" style="white-space: pre;" direction="ltr" dominant-baseline="text-before-edge">00:00</text></g><g transform="translate(308.9934652651343 117.79666222814012) rotate(0 25.769989013671875 12.5)"><text x="0" y="0" font-family="Virgil, Segoe UI Emoji" font-size="20px" fill="#1e1e1e" text-anchor="start" style="white-space: pre;" direction="ltr" dominant-baseline="text-before-edge">00:01</text></g><g transform="translate(518.9934652651336 118.79666222814012) rotate(0 30.17998504638672 12.5)"><text x="0" y="0" font-family="Virgil, Segoe UI Emoji" font-size="20px" fill="#1e1e1e" text-anchor="start" style="white-space: pre;" direction="ltr" dominant-baseline="text-before-edge">00:02</text></g><g transform="translate(723.7534674013641 116.79666222814012) rotate(0 29.86998748779297 12.5)"><text x="0" y="0" font-family="Virgil, Segoe UI Emoji" font-size="20px" fill="#1e1e1e" text-anchor="start" style="white-space: pre;" direction="ltr" dominant-baseline="text-before-edge">00:03</text></g></svg>