<svg version="1.1" xmlns="http://www.w3.org/2000/svg" viewBox="0 0 869.8338501400962 233.16153201002618" width="869.8338501400962" height="233.16153201002618">
  <!-- svg-source:excalidraw -->

  <defs>
    <style class="style-fonts">
      @font-face {
        font-family: "Virgil";
        src: url("https://excalidraw.com/Virgil.woff2");
      }
      @font-face {
        font-family: "Cascadia";
        src: url("https://excalidraw.com/Cascadia.woff2");
      }
    </style>

  </defs>
  <rect x="0" y="0" width="869.8338501400962" height="233.16153201002618" fill="#ffffff"></rect><g mask="url(#mask-sJRnDuWJ9r7bTiDNEvvgV)" stroke-linecap="round"><g transform="translate(139.43753157877143 132.95805648366724) rotate(0 306.2667007099284 -23.232628542565777)"><path d="M0.36 1.2 C51.32 -7.3, 203.65 -52.77, 305.84 -51.77 C408.02 -50.76, 562.38 -2.4, 613.45 7.21 M-0.92 0.78 C49.95 -8.02, 202.91 -54.42, 305.24 -53.67 C407.58 -52.92, 561.9 -4.8, 613.07 5.26" stroke="#1971c2" stroke-width="1" fill="none"></path></g><g transform="translate(139.43753157877143 132.95805648366724) rotate(0 306.2667007099284 -23.232628542565777)"><path d="M585.25 9.67 C593.02 8.69, 602.62 5.7, 612.13 3.39 M582.53 7.97 C595.62 6.59, 607.43 6.68, 612.5 6.08" stroke="#1971c2" stroke-width="1" fill="none"></path></g><g transform="translate(139.43753157877143 132.95805648366724) rotate(0 306.2667007099284 -23.232628542565777)"><path d="M590.12 -10.26 C596.29 -5.18, 604.4 -2.12, 612.13 3.39 M587.39 -11.96 C598.72 -5.6, 608.63 2.28, 612.5 6.08" stroke="#1971c2" stroke-width="1" fill="none"></path></g></g><mask id="mask-sJRnDuWJ9r7bTiDNEvvgV"><rect x="0" y="0" fill="#fff" width="852.1492719306692" height="291.6092995921657"></rect><rect x="348.69223341428824" y="68.27656475346913" fill="#000" width="191.7998504638672" height="25" opacity="1"></rect></mask><g transform="translate(348.69223341428824 68.27656475346913) rotate(0 97.01199887441146 41.44886318763233)"><text x="95.8999252319336" y="0" font-family="Virgil, Segoe UI Emoji" font-size="20px" fill="#1971c2" text-anchor="middle" style="white-space: pre;" direction="ltr" dominant-baseline="text-before-edge">Advance(3 seconds)</text></g><g stroke-linecap="round"><g transform="translate(136.73041878507422 179.66153201002618) rotate(0 361.07329449178656 -0.27599251630718413)"><path d="M-0.96 0.26 C119.59 0.55, 602.74 0.48, 723.1 0.62 M0.74 -0.65 C121.22 -0.61, 602.1 -1.17, 722.57 -1.17" stroke="#1e1e1e" stroke-width="1" fill="none"></path></g><g transform="translate(136.73041878507422 179.66153201002618) rotate(0 361.07329449178656 -0.27599251630718413)"><path d="M694.82 10.41 C703.54 4.6, 712.34 4.8, 722.55 -2.01 M693.95 8.73 C701.89 6.87, 708.59 3.04, 722.94 -1.45" stroke="#1e1e1e" stroke-width="1" fill="none"></path></g><g transform="translate(136.73041878507422 179.66153201002618) rotate(0 361.07329449178656 -0.27599251630718413)"><path d="M694.81 -10.11 C703.34 -10.07, 712.14 -4.04, 722.55 -2.01 M693.94 -11.79 C701.91 -8.12, 708.61 -6.42, 722.94 -1.45" stroke="#1e1e1e" stroke-width="1" fill="none"></path></g></g><mask></mask><g stroke-linecap="round"><g transform="translate(136.73041878507422 167.66153201002618) rotate(0 -0.005928562984365726 12.993632408203553)"><path d="M0.79 0.62 C0.77 4.93, -1.08 22.02, -1.08 26.08 M-0.26 -0.1 C0.16 3.87, 0.95 20.13, 1.07 24.53" stroke="#1e1e1e" stroke-width="1" fill="none"></path></g></g><mask></mask><g stroke-linecap="round"><g transform="translate(340.4696016124525 166.49172064982332) rotate(0 -0.1428324010223605 13.565095286984018)"><path d="M-1.08 1.08 C-1.08 5.15, 0.7 21.07, 0.79 24.99 M0.56 0.61 C0.4 4.82, 0.61 22.33, 0.26 26.52" stroke="#1e1e1e" stroke-width="1" fill="none"></path></g></g><mask></mask><g stroke-linecap="round"><g transform="translate(548.4696016124525 167.49172064982332) rotate(0 -0.458180089964344 12.458729893881838)"><path d="M0.79 -0.01 C0.89 3.91, -0.4 20.5, -0.5 24.63 M-0.25 -1.06 C-0.26 3.55, -1.67 21.47, -1.71 25.98" stroke="#1e1e1e" stroke-width="1" fill="none"></path></g></g><mask></mask><g stroke-linecap="round"><g transform="translate(753.4696016124525 167.49172064982332) rotate(0 0.37398735372346437 12.293551586885002)"><path d="M-0.5 -0.37 C-0.61 3.76, 0.17 20.62, 0.17 24.77 M1.43 -1.6 C1.12 2.71, -0.19 21.65, -0.69 26.19" stroke="#1e1e1e" stroke-width="1" fill="none"></path></g></g><mask></mask><g transform="translate(105.73041878507422 197.66153201002618) rotate(0 29.939987182617188 12.5)"><text x="0" y="0" font-family="Virgil, Segoe UI Emoji" font-size="20px" fill="#1e1e1e" text-anchor="start" style="white-space: pre;" direction="ltr" dominant-baseline="text-before-edge">00:00</text></g><g transform="translate(308.7904316024568 197.16153201002618) rotate(0 25.769989013671875 12.5)"><text x="0" y="0" font-family="Virgil, Segoe UI Emoji" font-size="20px" fill="#1e1e1e" text-anchor="start" style="white-space: pre;" direction="ltr" dominant-baseline="text-before-edge">00:01</text></g><g transform="translate(518.7904316024568 198.16153201002618) rotate(0 30.17998504638672 12.5)"><text x="0" y="0" font-family="Virgil, Segoe UI Emoji" font-size="20px" fill="#1e1e1e" text-anchor="start" style="white-space: pre;" direction="ltr" dominant-baseline="text-before-edge">00:02</text></g><g transform="translate(723.5504337386873 196.16153201002618) rotate(0 29.86998748779297 12.5)"><text x="0" y="0" font-family="Virgil, Segoe UI Emoji" font-size="20px" fill="#1e1e1e" text-anchor="start" style="white-space: pre;" direction="ltr" dominant-baseline="text-before-edge">00:03</text></g><g transform="translate(10 166.1871522166757) rotate(0 36.989959716796875 12.5)"><text x="0" y="0" font-family="Virgil, Segoe UI Emoji" font-size="20px" fill="#1e1e1e" text-anchor="start" style="white-space: pre;" direction="ltr" dominant-baseline="text-before-edge">Timeline</text></g><g stroke-linecap="round" transform="translate(333.0909182329227 171.48961843899434) rotate(0 7.5 7)"><path d="M15 7 C15 7.41, 14.96 7.82, 14.89 8.22 C14.81 8.61, 14.7 9.01, 14.55 9.39 C14.4 9.77, 14.21 10.15, 14 10.5 C13.78 10.85, 13.52 11.19, 13.25 11.5 C12.97 11.81, 12.65 12.1, 12.32 12.36 C11.99 12.62, 11.63 12.86, 11.25 13.06 C10.87 13.26, 10.47 13.44, 10.07 13.58 C9.66 13.72, 9.23 13.82, 8.8 13.89 C8.37 13.96, 7.93 14, 7.5 14 C7.07 14, 6.63 13.96, 6.2 13.89 C5.77 13.82, 5.34 13.72, 4.93 13.58 C4.53 13.44, 4.13 13.26, 3.75 13.06 C3.37 12.86, 3.01 12.62, 2.68 12.36 C2.35 12.1, 2.03 11.81, 1.75 11.5 C1.48 11.19, 1.22 10.85, 1 10.5 C0.79 10.15, 0.6 9.77, 0.45 9.39 C0.3 9.01, 0.19 8.61, 0.11 8.22 C0.04 7.82, 0 7.41, 0 7 C0 6.59, 0.04 6.18, 0.11 5.78 C0.19 5.39, 0.3 4.99, 0.45 4.61 C0.6 4.23, 0.79 3.85, 1 3.5 C1.22 3.15, 1.48 2.81, 1.75 2.5 C2.03 2.19, 2.35 1.9, 2.68 1.64 C3.01 1.38, 3.37 1.14, 3.75 0.94 C4.13 0.74, 4.53 0.56, 4.93 0.42 C5.34 0.28, 5.77 0.18, 6.2 0.11 C6.63 0.04, 7.07 0, 7.5 0 C7.93 0, 8.37 0.04, 8.8 0.11 C9.23 0.18, 9.66 0.28, 10.07 0.42 C10.47 0.56, 10.87 0.74, 11.25 0.94 C11.63 1.14, 11.99 1.38, 12.32 1.64 C12.65 1.9, 12.97 2.19, 13.25 2.5 C13.52 2.81, 13.78 3.15, 14 3.5 C14.21 3.85, 14.4 4.23, 14.55 4.61 C14.7 4.99, 14.81 5.39, 14.89 5.78 C14.96 6.18, 14.98 6.8, 15 7 C15.02 7.2, 15.02 6.8, 15 7" stroke="#6741d9" stroke-width="4" fill="none"></path></g><g stroke-linecap="round" transform="translate(540.0755461089328 172.47937035633453) rotate(0 7.5 7)"><path d="M15 7 C15 7.41, 14.96 7.82, 14.89 8.22 C14.81 8.61, 14.7 9.01, 14.55 9.39 C14.4 9.77, 14.21 10.15, 14 10.5 C13.78 10.85, 13.52 11.19, 13.25 11.5 C12.97 11.81, 12.65 12.1, 12.32 12.36 C11.99 12.62, 11.63 12.86, 11.25 13.06 C10.87 13.26, 10.47 13.44, 10.07 13.58 C9.66 13.72, 9.23 13.82, 8.8 13.89 C8.37 13.96, 7.93 14, 7.5 14 C7.07 14, 6.63 13.96, 6.2 13.89 C5.77 13.82, 5.34 13.72, 4.93 13.58 C4.53 13.44, 4.13 13.26, 3.75 13.06 C3.37 12.86, 3.01 12.62, 2.68 12.36 C2.35 12.1, 2.03 11.81, 1.75 11.5 C1.48 11.19, 1.22 10.85, 1 10.5 C0.79 10.15, 0.6 9.77, 0.45 9.39 C0.3 9.01, 0.19 8.61, 0.11 8.22 C0.04 7.82, 0 7.41, 0 7 C0 6.59, 0.04 6.18, 0.11 5.78 C0.19 5.39, 0.3 4.99, 0.45 4.61 C0.6 4.23, 0.79 3.85, 1 3.5 C1.22 3.15, 1.48 2.81, 1.75 2.5 C2.03 2.19, 2.35 1.9, 2.68 1.64 C3.01 1.38, 3.37 1.14, 3.75 0.94 C4.13 0.74, 4.53 0.56, 4.93 0.42 C5.34 0.28, 5.77 0.18, 6.2 0.11 C6.63 0.04, 7.07 0, 7.5 0 C7.93 0, 8.37 0.04, 8.8 0.11 C9.23 0.18, 9.66 0.28, 10.07 0.42 C10.47 0.56, 10.87 0.74, 11.25 0.94 C11.63 1.14, 11.99 1.38, 12.32 1.64 C12.65 1.9, 12.97 2.19, 13.25 2.5 C13.52 2.81, 13.78 3.15, 14 3.5 C14.21 3.85, 14.4 4.23, 14.55 4.61 C14.7 4.99, 14.81 5.39, 14.89 5.78 C14.96 6.18, 14.98 6.8, 15 7 C15.02 7.2, 15.02 6.8, 15 7" stroke="#6741d9" stroke-width="4" fill="none"></path></g><g stroke-linecap="round" transform="translate(746.0857941915928 171.48961843899434) rotate(0 7.5 7)"><path d="M15 7 C15 7.41, 14.96 7.82, 14.89 8.22 C14.81 8.61, 14.7 9.01, 14.55 9.39 C14.4 9.77, 14.21 10.15, 14 10.5 C13.78 10.85, 13.52 11.19, 13.25 11.5 C12.97 11.81, 12.65 12.1, 12.32 12.36 C11.99 12.62, 11.63 12.86, 11.25 13.06 C10.87 13.26, 10.47 13.44, 10.07 13.58 C9.66 13.72, 9.23 13.82, 8.8 13.89 C8.37 13.96, 7.93 14, 7.5 14 C7.07 14, 6.63 13.96, 6.2 13.89 C5.77 13.82, 5.34 13.72, 4.93 13.58 C4.53 13.44, 4.13 13.26, 3.75 13.06 C3.37 12.86, 3.01 12.62, 2.68 12.36 C2.35 12.1, 2.03 11.81, 1.75 11.5 C1.48 11.19, 1.22 10.85, 1 10.5 C0.79 10.15, 0.6 9.77, 0.45 9.39 C0.3 9.01, 0.19 8.61, 0.11 8.22 C0.04 7.82, 0 7.41, 0 7 C0 6.59, 0.04 6.18, 0.11 5.78 C0.19 5.39, 0.3 4.99, 0.45 4.61 C0.6 4.23, 0.79 3.85, 1 3.5 C1.22 3.15, 1.48 2.81, 1.75 2.5 C2.03 2.19, 2.35 1.9, 2.68 1.64 C3.01 1.38, 3.37 1.14, 3.75 0.94 C4.13 0.74, 4.53 0.56, 4.93 0.42 C5.34 0.28, 5.77 0.18, 6.2 0.11 C6.63 0.04, 7.07 0, 7.5 0 C7.93 0, 8.37 0.04, 8.8 0.11 C9.23 0.18, 9.66 0.28, 10.07 0.42 C10.47 0.56, 10.87 0.74, 11.25 0.94 C11.63 1.14, 11.99 1.38, 12.32 1.64 C12.65 1.9, 12.97 2.19, 13.25 2.5 C13.52 2.81, 13.78 3.15, 14 3.5 C14.21 3.85, 14.4 4.23, 14.55 4.61 C14.7 4.99, 14.81 5.39, 14.89 5.78 C14.96 6.18, 14.98 6.8, 15 7 C15.02 7.2, 15.02 6.8, 15 7" stroke="#6741d9" stroke-width="4" fill="none"></path></g><g transform="translate(348.1524067288814 152.08697522426257) rotate(0 8.329994201660156 12.5)"><text x="0" y="0" font-family="Virgil, Segoe UI Emoji" font-size="20px" fill="#6741d9" text-anchor="start" style="white-space: pre;" direction="ltr" dominant-baseline="text-before-edge">1x</text></g><g transform="translate(553.2779200365884 153.53573481096345) rotate(0 8.329994201660156 12.5)"><text x="0" y="0" font-family="Virgil, Segoe UI Emoji" font-size="20px" fill="#6741d9" text-anchor="start" style="white-space: pre;" direction="ltr" dominant-baseline="text-before-edge">1x</text></g><g transform="translate(761.1258226780277 153.0408588522934) rotate(0 8.329994201660156 12.5)"><text x="0" y="0" font-family="Virgil, Segoe UI Emoji" font-size="20px" fill="#6741d9" text-anchor="start" style="white-space: pre;" direction="ltr" dominant-baseline="text-before-edge">1x</text></g><g transform="translate(319.2282240231217 10) rotate(0 133.4759521484375 17.5)"><text x="0" y="0" font-family="Virgil, Segoe UI Emoji" font-size="28px" fill="#1e1e1e" text-anchor="start" style="white-space: pre;" direction="ltr" dominant-baseline="text-before-edge">ManualTimeProvider</text></g></svg>